
<svg width="184" height="160" viewBox="0 0 184 160" fill="none" xmlns="http://www.w3.org/2000/svg">
<path d="M85 10.2667C81.4 16.6667 78.2 22.8 77.9333 23.6C77.5333 25.2 94.6 55.4667 140.067 134L154.6 159.333L169.667 159.733C181.533 160 184.467 159.733 183.933 158.4C183 155.733 95.5333 3.73334 93.4 0.933335C91.8 -1.2 91 -0.266665 85 10.2667Z" fill="#FF4A3F"/>
<path d="M61.1333 53.6C60.0667 55.3333 46.8667 78.2667 31.6667 104.667C16.4667 131.067 3.26666 154 2.2 155.6L0.333328 158.667H44.8667H89.5333L95.1333 148.933C98.2 143.733 102.067 136.933 103.8 134L106.733 128.667L99.4 116.267L92.0667 103.733L89 108.933C87.4 111.733 83.5333 118.4 80.4667 123.6L74.8667 133.333H59.4H44.0667L45.9333 130.267C49.2667 125.2 89.8 54.5333 90.6 52.5333C91.1333 50.9333 88.8667 50.6667 77.1333 50.6667C63.9333 50.6667 63 50.8 61.1333 53.6Z" fill="#FF4A3F"/>
</svg>

